<svg width="143" height="39" viewBox="0 0 143 39" fill="none" xmlns="http://www.w3.org/2000/svg">
<path d="M53.92 26.256C54.496 25.232 54.784 24.2 54.784 23.16C54.784 22.472 54.536 22.128 54.04 22.128C53.656 22.128 53.264 22.456 52.864 23.112C52.448 23.768 52.176 24.52 52.048 25.368L50.8 33L45.832 33.48L48.28 20.76L52.24 20.28L51.808 22.704C52.592 21.088 53.864 20.28 55.624 20.28C56.552 20.28 57.264 20.52 57.76 21C58.272 21.48 58.528 22.216 58.528 23.208C58.528 24.184 58.2 24.984 57.544 25.608C56.904 26.232 56.032 26.544 54.928 26.544C54.448 26.544 54.112 26.448 53.92 26.256ZM68.6436 28.944C69.0436 29.216 69.2436 29.656 69.2436 30.264C69.2436 30.856 69.0916 31.344 68.7876 31.728C68.4836 32.112 68.0836 32.432 67.5876 32.688C66.5636 33.216 65.4996 33.48 64.3956 33.48C63.2916 33.48 62.4116 33.36 61.7556 33.12C61.1156 32.88 60.5796 32.536 60.1476 32.088C59.2996 31.24 58.8756 30.04 58.8756 28.488C58.8756 26.072 59.5316 24.128 60.8436 22.656C62.2516 21.072 64.1796 20.28 66.6276 20.28C68.1476 20.28 69.2836 20.6 70.0356 21.24C70.5956 21.72 70.8756 22.352 70.8756 23.136C70.8756 25.952 68.4436 27.36 63.5796 27.36C63.5156 27.776 63.4836 28.16 63.4836 28.512C63.4836 29.248 63.6436 29.76 63.9636 30.048C64.2996 30.32 64.7716 30.456 65.3796 30.456C65.9876 30.456 66.6116 30.32 67.2516 30.048C67.9076 29.76 68.3716 29.392 68.6436 28.944ZM63.7476 26.328C64.8836 26.328 65.7796 25.976 66.4356 25.272C67.0916 24.6 67.4196 23.728 67.4196 22.656C67.4196 22.288 67.3476 22.008 67.2036 21.816C67.0756 21.608 66.8756 21.504 66.6036 21.504C66.3316 21.504 66.0756 21.56 65.8356 21.672C65.6116 21.768 65.3796 21.992 65.1396 22.344C64.5476 23.144 64.0836 24.472 63.7476 26.328ZM78.8731 24.576C79.0971 23.984 79.2091 23.432 79.2091 22.92C79.2091 21.976 78.8251 21.504 78.0571 21.504C77.6571 21.504 77.2891 21.688 76.9531 22.056C76.6331 22.408 76.4731 22.808 76.4731 23.256C76.4731 23.576 76.6011 23.864 76.8571 24.12C77.2251 24.472 77.8811 24.936 78.8251 25.512C79.7691 26.088 80.4171 26.616 80.7691 27.096C81.1371 27.56 81.3211 28.12 81.3211 28.776C81.3211 29.416 81.1611 30.032 80.8411 30.624C80.5371 31.216 80.1051 31.72 79.5451 32.136C78.3451 33.032 76.7851 33.48 74.8651 33.48C73.8251 33.48 72.9051 33.208 72.1051 32.664C71.3051 32.136 70.9051 31.56 70.9051 30.936C70.9051 30.312 71.1291 29.816 71.5771 29.448C72.0411 29.08 72.6091 28.896 73.2811 28.896C73.9531 28.896 74.4971 29.024 74.9131 29.28C74.7051 29.808 74.6011 30.248 74.6011 30.6C74.6011 31.656 75.0491 32.184 75.9451 32.184C76.3291 32.184 76.6491 32.064 76.9051 31.824C77.1611 31.584 77.2891 31.256 77.2891 30.84C77.2891 30.024 76.6011 29.184 75.2251 28.32C74.1051 27.584 73.4171 27.072 73.1611 26.784C72.7291 26.272 72.5131 25.696 72.5131 25.056C72.5131 24.416 72.6651 23.792 72.9691 23.184C73.2731 22.576 73.7051 22.056 74.2651 21.624C75.4331 20.728 77.0331 20.28 79.0651 20.28C80.1051 20.28 80.9291 20.488 81.5371 20.904C82.1611 21.32 82.4731 21.88 82.4731 22.584C82.4731 23.288 82.2571 23.84 81.8251 24.24C81.4091 24.64 80.8171 24.84 80.0491 24.84C79.5211 24.84 79.1291 24.752 78.8731 24.576ZM93.0889 28.944C93.4889 29.216 93.6889 29.656 93.6889 30.264C93.6889 30.856 93.5369 31.344 93.2329 31.728C92.9289 32.112 92.5289 32.432 92.0329 32.688C91.0089 33.216 89.9449 33.48 88.8409 33.48C87.7369 33.48 86.8569 33.36 86.2009 33.12C85.5609 32.88 85.0249 32.536 84.5929 32.088C83.7449 31.24 83.3209 30.04 83.3209 28.488C83.3209 26.072 83.9769 24.128 85.2889 22.656C86.6969 21.072 88.6249 20.28 91.0729 20.28C92.5929 20.28 93.7289 20.6 94.4809 21.24C95.0409 21.72 95.3209 22.352 95.3209 23.136C95.3209 25.952 92.8889 27.36 88.0249 27.36C87.9609 27.776 87.9289 28.16 87.9289 28.512C87.9289 29.248 88.0889 29.76 88.4089 30.048C88.7449 30.32 89.2169 30.456 89.8249 30.456C90.4329 30.456 91.0569 30.32 91.6969 30.048C92.3529 29.76 92.8169 29.392 93.0889 28.944ZM88.1929 26.328C89.3289 26.328 90.2249 25.976 90.8809 25.272C91.5369 24.6 91.8649 23.728 91.8649 22.656C91.8649 22.288 91.7929 22.008 91.6489 21.816C91.5209 21.608 91.3209 21.504 91.0489 21.504C90.7769 21.504 90.5209 21.56 90.2809 21.672C90.0569 21.768 89.8249 21.992 89.5849 22.344C88.9929 23.144 88.5289 24.472 88.1929 26.328ZM107.326 31.368C106.654 32.04 105.854 32.56 104.926 32.928C104.014 33.296 103.102 33.48 102.19 33.48C101.278 33.48 100.662 33.4 100.342 33.24L99.5984 37.32L94.7264 37.8L98.0384 20.76L101.95 20.352L101.638 22.008C102.31 20.872 103.342 20.304 104.734 20.304C106.302 20.304 107.502 20.808 108.334 21.816C109.07 22.728 109.438 23.88 109.438 25.272C109.438 26.664 109.254 27.856 108.886 28.848C108.518 29.84 107.998 30.68 107.326 31.368ZM100.63 31.656C100.966 31.944 101.342 32.088 101.758 32.088C102.174 32.088 102.502 32.008 102.742 31.848C102.982 31.688 103.19 31.448 103.366 31.128C103.846 30.264 104.278 28.52 104.662 25.896C104.774 25.128 104.83 24.368 104.83 23.616C104.83 22.864 104.742 22.368 104.566 22.128C104.406 21.888 104.166 21.768 103.846 21.768C102.87 21.768 102.222 22.72 101.902 24.624L100.63 31.656ZM110.669 33L113.405 18.408L113.669 17.16H118.805L115.781 33H110.669ZM125.525 31.584C125.093 32.848 124.045 33.48 122.381 33.48C121.149 33.48 120.109 32.744 119.261 31.272C118.397 29.8 117.885 27.864 117.725 25.464C119.485 22.248 120.973 19.976 122.189 18.648C123.357 17.384 124.549 16.752 125.765 16.752C126.421 16.752 126.981 16.928 127.445 17.28C127.925 17.632 128.221 18.088 128.333 18.648C127.789 18.872 127.389 19.072 127.133 19.248C126.493 19.728 125.741 20.504 124.877 21.576L122.693 24.192C122.341 24.608 122.093 24.912 121.949 25.104C122.189 26.448 122.669 27.784 123.389 29.112C124.077 30.376 124.789 31.2 125.525 31.584ZM135.276 31.992C134.508 32.984 133.172 33.48 131.268 33.48C130.276 33.48 129.42 33.184 128.7 32.592C127.98 31.984 127.62 31.248 127.62 30.384C127.62 29.904 127.644 29.544 127.692 29.304L129.3 20.76L134.172 20.28L132.42 29.544C132.356 29.896 132.324 30.176 132.324 30.384C132.324 31.312 132.604 31.776 133.164 31.776C133.788 31.776 134.324 31.352 134.772 30.504C134.916 30.232 135.02 29.92 135.084 29.568L136.788 20.76L141.516 20.28L139.74 29.64C139.692 29.88 139.668 30.128 139.668 30.384C139.668 30.64 139.74 30.912 139.884 31.2C140.028 31.472 140.332 31.64 140.796 31.704C140.7 32.088 140.484 32.408 140.148 32.664C139.444 33.208 138.708 33.48 137.94 33.48C137.188 33.48 136.588 33.344 136.14 33.072C135.692 32.8 135.404 32.44 135.276 31.992Z" fill="#DC5C00"/>
<path d="M8.27407 11.5219C7.85605 11.0941 7.32143 10.7988 6.7368 10.6728C6.15217 10.5467 5.54337 10.5954 4.98622 10.8128C4.42907 11.0303 3.9482 11.4068 3.6035 11.8955C3.2588 12.3843 3.06551 12.9636 3.04769 13.5614C2.71482 13.7535 2.43207 14.0215 2.22252 14.3437C2.01298 14.6658 1.88258 15.033 1.84196 15.4151C1.80134 15.7973 1.85166 16.1836 1.98881 16.5426C2.12596 16.9016 2.34606 17.2231 2.63113 17.4808C2.9162 17.7386 3.25818 17.9252 3.62914 18.0256C4.00011 18.126 4.38955 18.1372 4.76569 18.0584C5.14183 17.9796 5.494 17.813 5.79347 17.5721C6.09293 17.3313 6.3312 17.023 6.48883 16.6725C6.97881 16.6083 7.44586 16.4261 7.8498 16.1414C8.20316 16.2925 8.58725 16.3579 8.9707 16.3322C9.35416 16.3066 9.72612 16.1906 10.0562 15.9938C10.3863 15.797 10.6652 15.525 10.8701 15.1999C11.0751 14.8747 11.2002 14.5058 11.2354 14.1231C11.2705 13.7404 11.2147 13.3548 11.0724 12.9978C10.9301 12.6408 10.7054 12.3225 10.4167 12.0688C10.128 11.8152 9.78336 11.6334 9.41099 11.5384C9.03862 11.4433 8.64905 11.4377 8.27407 11.5219Z" fill="#02A437"/>
<path d="M7.20173 17.0991C7.07902 17.0992 6.95917 17.0621 6.85784 16.9929C6.75652 16.9237 6.67846 16.8255 6.63387 16.7112L5.52618 13.8727C5.49709 13.7982 5.48297 13.7186 5.48463 13.6386C5.48628 13.5586 5.50368 13.4797 5.53583 13.4064C5.56798 13.3331 5.61424 13.2669 5.67199 13.2115C5.72974 13.1561 5.79783 13.1126 5.87238 13.0835C5.94693 13.0544 6.02649 13.0403 6.1065 13.0419C6.1865 13.0436 6.2654 13.061 6.33869 13.0931C6.41198 13.1253 6.47821 13.1716 6.53362 13.2293C6.58902 13.287 6.63251 13.3551 6.6616 13.4297L7.76952 16.2681C7.80558 16.3604 7.81857 16.4602 7.80734 16.5587C7.79612 16.6573 7.76102 16.7515 7.7051 16.8334C7.64918 16.9153 7.57413 16.9823 7.48645 17.0286C7.39877 17.0749 7.30111 17.0991 7.20196 17.0991H7.20173Z" fill="#027E2A"/>
<path d="M8.33764 16.656C8.31898 16.656 8.30016 16.6551 8.2812 16.6534C8.2015 16.6461 8.12403 16.6231 8.0532 16.5858C7.98238 16.5486 7.91959 16.4977 7.86842 16.4362C7.81725 16.3746 7.7787 16.3036 7.75498 16.2272C7.73126 16.1507 7.72283 16.0704 7.73017 15.9907C7.82513 14.9791 8.24355 14.0251 8.9234 13.2701C8.97686 13.2099 9.04169 13.161 9.11416 13.126C9.18662 13.0911 9.26529 13.0709 9.34562 13.0665C9.42596 13.0621 9.50636 13.0737 9.5822 13.1005C9.65803 13.1274 9.7278 13.169 9.78748 13.2229C9.84715 13.2769 9.89556 13.3421 9.92989 13.4149C9.96423 13.4876 9.98381 13.5665 9.98753 13.6468C9.99124 13.7272 9.979 13.8075 9.95152 13.8831C9.92404 13.9587 9.88186 14.0282 9.82741 14.0874C9.324 14.6465 9.01416 15.353 8.94381 16.1021C8.92997 16.2534 8.86014 16.394 8.74801 16.4965C8.63588 16.5989 8.48953 16.6558 8.33764 16.656Z" fill="#027E2A"/>
<path d="M6.06601 17.5424C5.91501 17.5425 5.76937 17.4864 5.6575 17.385C5.09839 16.8816 4.39191 16.5717 3.64283 16.5014C3.56314 16.4941 3.48567 16.4711 3.41484 16.4339C3.34402 16.3966 3.28122 16.3458 3.23005 16.2842C3.17887 16.2227 3.14032 16.1517 3.11659 16.0753C3.09285 15.9988 3.08441 15.9185 3.09173 15.8388C3.09905 15.7591 3.122 15.6816 3.15926 15.6108C3.19652 15.54 3.24737 15.4772 3.3089 15.426C3.37043 15.3748 3.44144 15.3363 3.51787 15.3125C3.5943 15.2888 3.67465 15.2804 3.75435 15.2877C4.76572 15.3827 5.71957 15.801 6.4746 16.4806C6.56607 16.5632 6.63036 16.6715 6.65901 16.7913C6.68765 16.9112 6.6793 17.0369 6.63505 17.1518C6.5908 17.2668 6.51273 17.3657 6.41114 17.4354C6.30956 17.5051 6.18922 17.5424 6.06601 17.5424Z" fill="#027E2A"/>
<path d="M14.3461 28.0922L9.8047 29.8647L5.42764 21.0906C5.22056 20.6755 5.10228 20.2217 5.08034 19.7583C5.05839 19.2949 5.13326 18.832 5.30017 18.3991C5.46707 17.9662 5.72236 17.5729 6.04974 17.2442C6.37712 16.9154 6.76941 16.6585 7.2016 16.4899C7.63382 16.3212 8.09645 16.2444 8.55998 16.2645C9.02351 16.2846 9.47776 16.4011 9.89378 16.6065C10.3098 16.8119 10.6784 17.1018 10.9762 17.4576C11.2739 17.8134 11.4942 18.2274 11.6231 18.6731L14.3461 28.0922Z" fill="#FD9226"/>
<path d="M20.7188 1.82812H23.1562V18.8906H20.7188V1.82812Z" fill="#026A23"/>
<path d="M21.8697 14.1634C21.8118 13.797 21.7153 13.4377 21.5818 13.0917L18.8906 6.09375L17.0625 6.70312L19.6729 13.49C19.9616 14.2404 20.1095 15.0375 20.1094 15.8415V18.004L21.8697 14.1634Z" fill="#027226"/>
<path d="M24.5509 24.813C24.8517 25.2141 25.0143 25.7018 25.0143 26.2031C25.0143 26.7044 24.8517 27.1922 24.5509 27.5933L24.5426 27.6047C24.3013 27.9263 23.9885 28.1874 23.6289 28.3672C23.2693 28.547 22.8728 28.6406 22.4707 28.6406H21.4043C21.0022 28.6406 20.6057 28.547 20.2461 28.3672C19.8865 28.1874 19.5736 27.9263 19.3324 27.6047L19.324 27.5933C19.0233 27.1922 18.8607 26.7044 18.8607 26.2031C18.8607 25.7018 19.0233 25.2141 19.324 24.813L20.1094 23.7656V18.004L21.8697 14.1634L21.9375 14.0156L24.9844 6.09375L26.8125 6.70312L24.2021 13.49C23.9134 14.2404 23.7655 15.0375 23.7656 15.8415V23.7656L24.5509 24.813Z" fill="#027E2A"/>
<path d="M24.551 27.5933L24.5426 27.6047C24.2864 27.9467 23.9493 28.2197 23.5615 28.3992L19.9182 28.1714C19.694 28.0149 19.4962 27.8236 19.3324 27.6047L19.324 27.5933C19.0233 27.1922 18.8607 26.7044 18.8607 26.2031C18.8607 25.7018 19.0233 25.2141 19.324 24.813L19.3781 24.7406L20.1094 24.375L23.7656 15.8415V23.7656L24.551 24.813C24.8517 25.2141 25.0143 25.7018 25.0143 26.2031C25.0143 26.7044 24.8517 27.1922 24.551 27.5933Z" fill="#027E2A"/>
<path d="M6.13568 22.7482C5.99349 22.7484 5.85571 22.6989 5.7462 22.6082C5.63669 22.5175 5.56234 22.3913 5.53604 22.2516C5.50973 22.1119 5.53311 21.9673 5.60214 21.843C5.67117 21.7187 5.7815 21.6225 5.91402 21.5709L7.04936 21.1279C7.19992 21.0692 7.36766 21.0726 7.51568 21.1375C7.66369 21.2024 7.77986 21.3235 7.83861 21.4741C7.89737 21.6246 7.89391 21.7924 7.82899 21.9404C7.76407 22.0884 7.64302 22.2046 7.49245 22.2633L6.35749 22.7064C6.2868 22.734 6.21157 22.7482 6.13568 22.7482Z" fill="#E78244"/>
<path d="M9.54175 21.419C9.39958 21.4191 9.26184 21.3696 9.15236 21.2789C9.04288 21.1882 8.96855 21.0621 8.94223 20.9224C8.91592 20.7827 8.93928 20.6382 9.00827 20.5139C9.07726 20.3896 9.18753 20.2933 9.32001 20.2417L10.4554 19.7987C10.606 19.74 10.7737 19.7435 10.9217 19.8084C11.0697 19.8733 11.1859 19.9944 11.2446 20.1449C11.3034 20.2955 11.2999 20.4632 11.235 20.6112C11.1701 20.7592 11.049 20.8754 10.8984 20.9341L9.76348 21.3772C9.69281 21.4048 9.61761 21.419 9.54175 21.419Z" fill="#E78244"/>
<path d="M7.11535 24.9636C6.97316 24.9638 6.83538 24.9143 6.72587 24.8236C6.61637 24.7329 6.54202 24.6067 6.51571 24.467C6.4894 24.3273 6.51279 24.1827 6.58182 24.0584C6.65084 23.9341 6.76117 23.8379 6.89369 23.7863L8.5032 23.1769C8.57776 23.1479 8.65732 23.1337 8.73734 23.1354C8.81735 23.137 8.89626 23.1544 8.96955 23.1866C9.04284 23.2187 9.10909 23.265 9.1645 23.3227C9.21991 23.3805 9.2634 23.4486 9.2925 23.5231C9.32159 23.5977 9.33571 23.6773 9.33406 23.7573C9.33241 23.8373 9.31501 23.9162 9.28286 23.9895C9.25072 24.0628 9.20445 24.129 9.1467 24.1844C9.08895 24.2399 9.02085 24.2833 8.9463 24.3124L7.33671 24.9218C7.26616 24.9494 7.1911 24.9636 7.11535 24.9636Z" fill="#E78244"/>
<path d="M10.9956 23.4685C10.8534 23.4687 10.7157 23.4191 10.6062 23.3284C10.4968 23.2377 10.4224 23.1116 10.3961 22.9719C10.3698 22.8322 10.3932 22.6877 10.4622 22.5634C10.5312 22.4391 10.6415 22.3429 10.7739 22.2913L11.3416 22.0697C11.4922 22.011 11.66 22.0145 11.808 22.0794C11.956 22.1443 12.0721 22.2654 12.1309 22.416C12.1896 22.5665 12.1862 22.7343 12.1212 22.8823C12.0563 23.0303 11.9352 23.1465 11.7847 23.2052L11.2169 23.4267C11.1464 23.4543 11.0713 23.4685 10.9956 23.4685Z" fill="#E78244"/>
<path d="M14.3965 15.2344H15.8428C16.3238 15.2344 16.7953 15.3684 17.2045 15.6213C17.6137 15.8742 17.9443 16.2361 18.1594 16.6664L18.6621 17.6719H17.2158C16.7349 17.6719 16.2634 17.5379 15.8543 17.2851C15.4452 17.0322 15.1145 16.6704 14.8994 16.2402L14.3965 15.2344Z" fill="#02A437"/>
<path d="M17.3392 21.1758C17.1776 21.1758 17.0226 21.1116 16.9083 20.9973C16.7941 20.883 16.7299 20.728 16.7299 20.5664C16.7321 19.5669 17.0793 18.5989 17.713 17.826C18.3467 17.053 19.2278 16.5226 20.2074 16.3245L20.2667 16.3126C20.4252 16.2809 20.5897 16.3135 20.7242 16.4031C20.8587 16.4928 20.952 16.6322 20.9837 16.7907C21.0154 16.9492 20.9828 17.1138 20.8931 17.2482C20.8034 17.3827 20.664 17.476 20.5055 17.5077L20.4464 17.5195C19.7427 17.6618 19.1098 18.0428 18.6547 18.598C18.1996 19.1532 17.9502 19.8485 17.9486 20.5664C17.9486 20.728 17.8844 20.883 17.7701 20.9973C17.6558 21.1116 17.5008 21.1758 17.3392 21.1758Z" fill="#8F6934"/>
<path d="M24.551 27.5933L24.5426 27.6047C24.2864 27.9467 23.9493 28.2197 23.5615 28.3992L19.9182 28.1714C19.694 28.0149 19.4962 27.8236 19.3324 27.6047L19.324 27.5933C19.0233 27.1922 18.8607 26.7044 18.8607 26.2031C18.8607 25.7018 19.0233 25.2141 19.324 24.813L19.3781 24.7406L20.1094 24.375L23.7656 15.8415V23.7656L24.551 24.813C24.8517 25.2141 25.0143 25.7018 25.0143 26.2031C25.0143 26.7044 24.8517 27.1922 24.551 27.5933Z" fill="#CBCBCB"/>
<path d="M15.1573 19.3477C15.4536 19.3477 15.7453 19.4208 16.0065 19.5606C16.2677 19.7004 16.4904 19.9025 16.6548 20.1491C16.7299 20.2617 16.8317 20.3541 16.9511 20.418C17.0705 20.4819 17.2038 20.5154 17.3392 20.5154C17.4747 20.5154 17.608 20.4819 17.7274 20.418C17.8468 20.3541 17.9486 20.2617 18.0237 20.1491C18.188 19.9025 18.4107 19.7004 18.6719 19.5606C18.9331 19.4208 19.2248 19.3477 19.5211 19.3477C19.791 19.3477 20.0574 19.4084 20.3007 19.5253C20.5439 19.6422 20.7578 19.8123 20.9264 20.0231L21.0695 20.2019C21.5822 20.8428 21.8832 21.6271 21.9308 22.4464C21.9784 23.2657 21.7704 24.0796 21.3354 24.7756L20.1464 26.6781C20.0333 26.8591 19.876 27.0083 19.6893 27.1118C19.5026 27.2152 19.2927 27.2695 19.0792 27.2695C18.7455 27.2695 18.4254 27.1369 18.1894 26.9009C18.0777 26.7893 17.9452 26.7007 17.7993 26.6403C17.6535 26.5799 17.4971 26.5488 17.3392 26.5488C17.1813 26.5488 17.025 26.5799 16.8791 26.6403C16.7333 26.7007 16.6007 26.7893 16.4891 26.9009C16.2531 27.1369 15.933 27.2695 15.5992 27.2695C15.3858 27.2695 15.1759 27.2153 14.9892 27.1118C14.8025 27.0083 14.6452 26.8591 14.5321 26.6781L13.343 24.7756C12.9081 24.0796 12.7 23.2657 12.7476 22.4464C12.7953 21.6271 13.0962 20.8428 13.6089 20.2019L13.752 20.0231C13.9206 19.8123 14.1345 19.6422 14.3777 19.5253C14.621 19.4084 14.8874 19.3477 15.1573 19.3477Z" fill="#E82F3E"/>
<path d="M15.5848 24.375C15.5047 24.3751 15.4255 24.3594 15.3515 24.3288C15.2776 24.2981 15.2104 24.2532 15.1539 24.1965C14.8856 23.9289 14.7085 23.5834 14.6477 23.2093C14.587 22.8353 14.6456 22.4515 14.8154 22.1127L15.0394 21.6647C15.1125 21.5215 15.2392 21.4129 15.3919 21.3627C15.5447 21.3124 15.7111 21.3246 15.8549 21.3965C15.9987 21.4684 16.1083 21.5943 16.1597 21.7466C16.2111 21.899 16.2003 22.0655 16.1295 22.2098L15.9055 22.6578C15.8504 22.7678 15.8313 22.8924 15.851 23.0139C15.8707 23.1354 15.9282 23.2476 16.0154 23.3345C16.1006 23.4197 16.1588 23.5283 16.1823 23.6465C16.2059 23.7647 16.1939 23.8873 16.1478 23.9987C16.1017 24.11 16.0236 24.2052 15.9234 24.2722C15.8231 24.3392 15.7053 24.375 15.5848 24.375Z" fill="#FF6268"/>
<path d="M1.82812 29.8594H37.1719V33.5156H1.82812V29.8594Z" fill="#EA9D2D"/>
<path d="M5.48438 32.2969H4.26562C4.10401 32.2969 3.94901 32.2327 3.83473 32.1184C3.72045 32.0041 3.65625 31.8491 3.65625 31.6875C3.65625 31.5259 3.72045 31.3709 3.83473 31.2566C3.94901 31.1423 4.10401 31.0781 4.26562 31.0781H5.48438C5.64599 31.0781 5.80099 31.1423 5.91527 31.2566C6.02955 31.3709 6.09375 31.5259 6.09375 31.6875C6.09375 31.8491 6.02955 32.0041 5.91527 32.1184C5.80099 32.2327 5.64599 32.2969 5.48438 32.2969Z" fill="#C38325"/>
<path d="M34.7344 32.2969H33.5156C33.354 32.2969 33.199 32.2327 33.0847 32.1184C32.9705 32.0041 32.9062 31.8491 32.9062 31.6875C32.9062 31.5259 32.9705 31.3709 33.0847 31.2566C33.199 31.1423 33.354 31.0781 33.5156 31.0781H34.7344C34.896 31.0781 35.051 31.1423 35.1653 31.2566C35.2795 31.3709 35.3438 31.5259 35.3438 31.6875C35.3438 31.8491 35.2795 32.0041 35.1653 32.1184C35.051 32.2327 34.896 32.2969 34.7344 32.2969Z" fill="#C38325"/>
<path d="M1.82812 33.5156H37.1719V37.1719H1.82812V33.5156Z" fill="#FBB540"/>
<path d="M5.48438 35.9531H4.26562C4.10401 35.9531 3.94901 35.8889 3.83473 35.7746C3.72045 35.6604 3.65625 35.5054 3.65625 35.3438C3.65625 35.1821 3.72045 35.0271 3.83473 34.9129C3.94901 34.7986 4.10401 34.7344 4.26562 34.7344H5.48438C5.64599 34.7344 5.80099 34.7986 5.91527 34.9129C6.02955 35.0271 6.09375 35.1821 6.09375 35.3438C6.09375 35.5054 6.02955 35.6604 5.91527 35.7746C5.80099 35.8889 5.64599 35.9531 5.48438 35.9531Z" fill="#C38325"/>
<path d="M20.1094 32.2969H18.8906C18.729 32.2969 18.574 32.2327 18.4597 32.1184C18.3455 32.0041 18.2812 31.8491 18.2812 31.6875C18.2812 31.5259 18.3455 31.3709 18.4597 31.2566C18.574 31.1423 18.729 31.0781 18.8906 31.0781H20.1094C20.271 31.0781 20.426 31.1423 20.5403 31.2566C20.6545 31.3709 20.7188 31.5259 20.7188 31.6875C20.7188 31.8491 20.6545 32.0041 20.5403 32.1184C20.426 32.2327 20.271 32.2969 20.1094 32.2969Z" fill="#C38325"/>
<path d="M20.1094 35.9531H18.8906C18.729 35.9531 18.574 35.8889 18.4597 35.7746C18.3455 35.6604 18.2812 35.5054 18.2812 35.3438C18.2812 35.1821 18.3455 35.0271 18.4597 34.9129C18.574 34.7986 18.729 34.7344 18.8906 34.7344H20.1094C20.271 34.7344 20.426 34.7986 20.5403 34.9129C20.6545 35.0271 20.7188 35.1821 20.7188 35.3438C20.7188 35.5054 20.6545 35.6604 20.5403 35.7746C20.426 35.8889 20.271 35.9531 20.1094 35.9531Z" fill="#C38325"/>
<path d="M34.7344 35.9531H33.5156C33.354 35.9531 33.199 35.8889 33.0847 35.7746C32.9705 35.6604 32.9062 35.5054 32.9062 35.3438C32.9062 35.1821 32.9705 35.0271 33.0847 34.9129C33.199 34.7986 33.354 34.7344 33.5156 34.7344H34.7344C34.896 34.7344 35.051 34.7986 35.1653 34.9129C35.2795 35.0271 35.3438 35.1821 35.3438 35.3438C35.3438 35.5054 35.2795 35.6604 35.1653 35.7746C35.051 35.8889 34.896 35.9531 34.7344 35.9531Z" fill="#C38325"/>
<path d="M26.8125 22.5469L27.3479 23.0823C27.7578 23.4921 28.0829 23.9787 28.3047 24.5141C28.5265 25.0496 28.6406 25.6235 28.6406 26.2031H30.4688V25.5938C30.4688 25.0142 30.3546 24.4402 30.1328 23.9048C29.911 23.3693 29.5859 22.8827 29.176 22.4729L28.6406 21.9375L26.8125 22.5469Z" fill="#027E2A"/>
<path d="M34.125 22.5469L33.5896 23.0823C33.1797 23.4921 32.8546 23.9787 32.6328 24.5141C32.411 25.0496 32.2969 25.6235 32.2969 26.2031H30.4688V25.5938C30.4687 25.0142 30.5829 24.4402 30.8047 23.9048C31.0265 23.3693 31.3516 22.8827 31.7615 22.4729L32.2969 21.9375L34.125 22.5469Z" fill="#027E2A"/>
<path d="M37.1719 17.8242C37.1722 17.4889 37.0985 17.1576 36.9561 16.8539C36.8137 16.5503 36.6061 16.2818 36.3481 16.0676C36.425 15.7444 36.4305 15.4084 36.3642 15.0829C36.2979 14.7574 36.1615 14.4503 35.9643 14.183C35.7672 13.9156 35.5141 13.6945 35.2228 13.535C34.9314 13.3755 34.6088 13.2815 34.2773 13.2595C33.8768 12.5632 33.2998 11.9848 32.6044 11.5827C31.9091 11.1805 31.12 10.9687 30.3168 10.9688C29.5135 10.9687 28.7244 11.1805 28.0291 11.5827C27.3338 11.9848 26.7568 12.5632 26.3562 13.2595C26.0247 13.2814 25.7021 13.3754 25.4106 13.5349C25.1192 13.6944 24.8661 13.9155 24.6689 14.1828C24.4717 14.4502 24.3353 14.7573 24.269 15.0828C24.2027 15.4083 24.2082 15.7444 24.2851 16.0676C23.8214 16.453 23.529 17.0061 23.4715 17.6063C23.4141 18.2065 23.5962 18.8051 23.9783 19.2715C23.6466 19.8867 23.5364 20.5973 23.6663 21.284C23.7963 21.9708 24.1584 22.5921 24.6919 23.0436C25.2255 23.4951 25.8981 23.7494 26.5969 23.7639C27.2957 23.7784 27.9782 23.5522 28.5301 23.1233C29.1784 23.0386 29.7938 22.7875 30.3164 22.3945C30.8389 22.7876 31.4543 23.0387 32.1027 23.1234C32.6545 23.5525 33.3371 23.7787 34.036 23.7642C34.7348 23.7497 35.4075 23.4954 35.941 23.0438C36.4746 22.5923 36.8367 21.971 36.9666 21.2841C37.0965 20.5973 36.9863 19.8867 36.6544 19.2715C36.9896 18.8637 37.1725 18.3521 37.1719 17.8242Z" fill="#02A437"/>
<path d="M32.0405 15.2344C31.9144 15.2344 31.7915 15.1953 31.6886 15.1225C31.5857 15.0497 31.5079 14.9468 31.4659 14.8279C31.3818 14.5903 31.226 14.3846 31.0202 14.2391C30.8143 14.0936 30.5685 14.0155 30.3164 14.0155C30.0643 14.0155 29.8184 14.0936 29.6126 14.2391C29.4067 14.3846 29.251 14.5903 29.1669 14.8279C29.113 14.9803 29.0008 15.105 28.855 15.1747C28.7092 15.2444 28.5416 15.2533 28.3892 15.1994C28.2368 15.1455 28.1121 15.0334 28.0424 14.8875C27.9728 14.7417 27.9639 14.5741 28.0177 14.4218C28.1859 13.9465 28.4972 13.535 28.9089 13.244C29.3205 12.953 29.8123 12.7968 30.3164 12.7968C30.8205 12.7968 31.3122 12.953 31.7239 13.244C32.1355 13.535 32.4469 13.9465 32.615 14.4218C32.6475 14.5137 32.6575 14.6121 32.6441 14.7086C32.6307 14.8052 32.5944 14.8972 32.5381 14.9768C32.4818 15.0564 32.4072 15.1214 32.3206 15.1662C32.234 15.211 32.138 15.2344 32.0405 15.2344Z" fill="#027E2A"/>
<path d="M27.2695 19.5C26.7847 19.5 26.3197 19.3074 25.9769 18.9646C25.634 18.6217 25.4414 18.1567 25.4414 17.6719C25.4414 17.187 25.634 16.722 25.9769 16.3792C26.3197 16.0364 26.7847 15.8438 27.2695 15.8438C27.4311 15.8438 27.5861 15.908 27.7004 16.0222C27.8147 16.1365 27.8789 16.2915 27.8789 16.4531C27.8789 16.6147 27.8147 16.7697 27.7004 16.884C27.5861 16.9983 27.4311 17.0625 27.2695 17.0625C27.1079 17.0625 26.9529 17.1267 26.8386 17.241C26.7244 17.3553 26.6602 17.5103 26.6602 17.6719C26.6602 17.8335 26.7244 17.9885 26.8386 18.1028C26.9529 18.217 27.1079 18.2812 27.2695 18.2812C27.4311 18.2812 27.5861 18.3455 27.7004 18.4597C27.8147 18.574 27.8789 18.729 27.8789 18.8906C27.8789 19.0522 27.8147 19.2072 27.7004 19.3215C27.5861 19.4358 27.4311 19.5 27.2695 19.5Z" fill="#027E2A"/>
<path d="M1.82812 26.2031H37.1719V29.8594H1.82812V26.2031Z" fill="#FBB540"/>
<path d="M5.48438 28.6406H4.26562C4.10401 28.6406 3.94901 28.5764 3.83473 28.4621C3.72045 28.3479 3.65625 28.1929 3.65625 28.0312C3.65625 27.8696 3.72045 27.7146 3.83473 27.6004C3.94901 27.4861 4.10401 27.4219 4.26562 27.4219H5.48438C5.64599 27.4219 5.80099 27.4861 5.91527 27.6004C6.02955 27.7146 6.09375 27.8696 6.09375 28.0312C6.09375 28.1929 6.02955 28.3479 5.91527 28.4621C5.80099 28.5764 5.64599 28.6406 5.48438 28.6406Z" fill="#C38325"/>
<path d="M34.7344 28.6406H33.5156C33.354 28.6406 33.199 28.5764 33.0847 28.4621C32.9705 28.3479 32.9062 28.1929 32.9062 28.0312C32.9062 27.8696 32.9705 27.7146 33.0847 27.6004C33.199 27.4861 33.354 27.4219 33.5156 27.4219H34.7344C34.896 27.4219 35.051 27.4861 35.1653 27.6004C35.2795 27.7146 35.3438 27.8696 35.3438 28.0312C35.3438 28.1929 35.2795 28.3479 35.1653 28.4621C35.051 28.5764 34.896 28.6406 34.7344 28.6406Z" fill="#C38325"/>
<path d="M20.1094 28.6406H18.8906C18.729 28.6406 18.574 28.5764 18.4597 28.4621C18.3455 28.3479 18.2812 28.1929 18.2812 28.0312C18.2812 27.8696 18.3455 27.7146 18.4597 27.6004C18.574 27.4861 18.729 27.4219 18.8906 27.4219H20.1094C20.271 27.4219 20.426 27.4861 20.5403 27.6004C20.6545 27.7146 20.7188 27.8696 20.7188 28.0312C20.7188 28.1929 20.6545 28.3479 20.5403 28.4621C20.426 28.5764 20.271 28.6406 20.1094 28.6406Z" fill="#C38325"/>
</svg>
